<?xml version="1.0" standalone="no"?>
<!DOCTYPE svg PUBLIC "-//W3C//DTD SVG 1.1//EN" "http://www.w3.org/Graphics/SVG/1.1/DTD/svg11.dtd">
<svg version="1.1" width="1200" height="534" onload="init(evt)" viewBox="0 0 1200 534" xmlns="http://www.w3.org/2000/svg" xmlns:xlink="http://www.w3.org/1999/xlink">
<!-- Flame graph stack visualization. See https://github.com/brendangregg/FlameGraph for latest version, and http://www.brendangregg.com/flamegraphs.html for examples. -->
<!-- NOTES:  -->
<defs>
	<linearGradient id="background" y1="0" y2="1" x1="0" x2="0" >
		<stop stop-color="#eeeeee" offset="5%" />
		<stop stop-color="#eeeeb0" offset="95%" />
	</linearGradient>
</defs>
<style type="text/css">
	text { font-family:Verdana; font-size:12px; fill:rgb(0,0,0); }
	#search, #ignorecase { opacity:0.1; cursor:pointer; }
	#search:hover, #search.show, #ignorecase:hover, #ignorecase.show { opacity:1; }
	#subtitle { text-anchor:middle; font-color:rgb(160,160,160); }
	#title { text-anchor:middle; font-size:17px}
	#unzoom { cursor:pointer; }
	#frames > *:hover { stroke:black; stroke-width:0.5; cursor:pointer; }
	.hide { display:none; }
	.parent { opacity:0.5; }
</style>
<script type="text/ecmascript">
<![CDATA[
	"use strict";
	var details, searchbtn, unzoombtn, matchedtxt, svg, searching, currentSearchTerm, ignorecase, ignorecaseBtn;
	function init(evt) {
		details = document.getElementById("details").firstChild;
		searchbtn = document.getElementById("search");
		ignorecaseBtn = document.getElementById("ignorecase");
		unzoombtn = document.getElementById("unzoom");
		matchedtxt = document.getElementById("matched");
		svg = document.getElementsByTagName("svg")[0];
		searching = 0;
		currentSearchTerm = null;

		// use GET parameters to restore a flamegraphs state.
		var params = get_params();
		if (params.x && params.y)
			zoom(find_group(document.querySelector('[x="' + params.x + '"][y="' + params.y + '"]')));
                if (params.s) search(params.s);
	}

	// event listeners
	window.addEventListener("click", function(e) {
		var target = find_group(e.target);
		if (target) {
			if (target.nodeName == "a") {
				if (e.ctrlKey === false) return;
				e.preventDefault();
			}
			if (target.classList.contains("parent")) unzoom(true);
			zoom(target);
			if (!document.querySelector('.parent')) {
				// we have basically done a clearzoom so clear the url
				var params = get_params();
				if (params.x) delete params.x;
				if (params.y) delete params.y;
				history.replaceState(null, null, parse_params(params));
				unzoombtn.classList.add("hide");
				return;
			}

			// set parameters for zoom state
			var el = target.querySelector("rect");
			if (el && el.attributes && el.attributes.y && el.attributes._orig_x) {
				var params = get_params()
				params.x = el.attributes._orig_x.value;
				params.y = el.attributes.y.value;
				history.replaceState(null, null, parse_params(params));
			}
		}
		else if (e.target.id == "unzoom") clearzoom();
		else if (e.target.id == "search") search_prompt();
		else if (e.target.id == "ignorecase") toggle_ignorecase();
	}, false)

	// mouse-over for info
	// show
	window.addEventListener("mouseover", function(e) {
		var target = find_group(e.target);
		if (target) details.nodeValue = "Function: " + g_to_text(target);
	}, false)

	// clear
	window.addEventListener("mouseout", function(e) {
		var target = find_group(e.target);
		if (target) details.nodeValue = ' ';
	}, false)

	// ctrl-F for search
	// ctrl-I to toggle case-sensitive search
	window.addEventListener("keydown",function (e) {
		if (e.keyCode === 114 || (e.ctrlKey && e.keyCode === 70)) {
			e.preventDefault();
			search_prompt();
		}
		else if (e.ctrlKey && e.keyCode === 73) {
			e.preventDefault();
			toggle_ignorecase();
		}
	}, false)

	// functions
	function get_params() {
		var params = {};
		var paramsarr = window.location.search.substr(1).split('&');
		for (var i = 0; i < paramsarr.length; ++i) {
			var tmp = paramsarr[i].split("=");
			if (!tmp[0] || !tmp[1]) continue;
			params[tmp[0]]  = decodeURIComponent(tmp[1]);
		}
		return params;
	}
	function parse_params(params) {
		var uri = "?";
		for (var key in params) {
			uri += key + '=' + encodeURIComponent(params[key]) + '&';
		}
		if (uri.slice(-1) == "&")
			uri = uri.substring(0, uri.length - 1);
		if (uri == '?')
			uri = window.location.href.split('?')[0];
		return uri;
	}
	function find_child(node, selector) {
		var children = node.querySelectorAll(selector);
		if (children.length) return children[0];
	}
	function find_group(node) {
		var parent = node.parentElement;
		if (!parent) return;
		if (parent.id == "frames") return node;
		return find_group(parent);
	}
	function orig_save(e, attr, val) {
		if (e.attributes["_orig_" + attr] != undefined) return;
		if (e.attributes[attr] == undefined) return;
		if (val == undefined) val = e.attributes[attr].value;
		e.setAttribute("_orig_" + attr, val);
	}
	function orig_load(e, attr) {
		if (e.attributes["_orig_"+attr] == undefined) return;
		e.attributes[attr].value = e.attributes["_orig_" + attr].value;
		e.removeAttribute("_orig_"+attr);
	}
	function g_to_text(e) {
		var text = find_child(e, "title").firstChild.nodeValue;
		return (text)
	}
	function g_to_func(e) {
		var func = g_to_text(e);
		// if there's any manipulation we want to do to the function
		// name before it's searched, do it here before returning.
		return (func);
	}
	function update_text(e) {
		var r = find_child(e, "rect");
		var t = find_child(e, "text");
		var w = parseFloat(r.attributes.width.value) -3;
		var txt = find_child(e, "title").textContent.replace(/\([^(]*\)$/,"");
		t.attributes.x.value = parseFloat(r.attributes.x.value) + 3;

		// Smaller than this size won't fit anything
		if (w < 2 * 12 * 0.59) {
			t.textContent = "";
			return;
		}

		t.textContent = txt;
		var sl = t.getSubStringLength(0, txt.length);
		// check if only whitespace or if we can fit the entire string into width w
		if (/^ *$/.test(txt) || sl < w)
			return;

		// this isn't perfect, but gives a good starting point
		// and avoids calling getSubStringLength too often
		var start = Math.floor((w/sl) * txt.length);
		for (var x = start; x > 0; x = x-2) {
			if (t.getSubStringLength(0, x + 2) <= w) {
				t.textContent = txt.substring(0, x) + "..";
				return;
			}
		}
		t.textContent = "";
	}

	// zoom
	function zoom_reset(e) {
		if (e.attributes != undefined) {
			orig_load(e, "x");
			orig_load(e, "width");
		}
		if (e.childNodes == undefined) return;
		for (var i = 0, c = e.childNodes; i < c.length; i++) {
			zoom_reset(c[i]);
		}
	}
	function zoom_child(e, x, ratio) {
		if (e.attributes != undefined) {
			if (e.attributes.x != undefined) {
				orig_save(e, "x");
				e.attributes.x.value = (parseFloat(e.attributes.x.value) - x - 10) * ratio + 10;
				if (e.tagName == "text")
					e.attributes.x.value = find_child(e.parentNode, "rect[x]").attributes.x.value + 3;
			}
			if (e.attributes.width != undefined) {
				orig_save(e, "width");
				e.attributes.width.value = parseFloat(e.attributes.width.value) * ratio;
			}
		}

		if (e.childNodes == undefined) return;
		for (var i = 0, c = e.childNodes; i < c.length; i++) {
			zoom_child(c[i], x - 10, ratio);
		}
	}
	function zoom_parent(e) {
		if (e.attributes) {
			if (e.attributes.x != undefined) {
				orig_save(e, "x");
				e.attributes.x.value = 10;
			}
			if (e.attributes.width != undefined) {
				orig_save(e, "width");
				e.attributes.width.value = parseInt(svg.width.baseVal.value) - (10 * 2);
			}
		}
		if (e.childNodes == undefined) return;
		for (var i = 0, c = e.childNodes; i < c.length; i++) {
			zoom_parent(c[i]);
		}
	}
	function zoom(node) {
		var attr = find_child(node, "rect").attributes;
		var width = parseFloat(attr.width.value);
		var xmin = parseFloat(attr.x.value);
		var xmax = parseFloat(xmin + width);
		var ymin = parseFloat(attr.y.value);
		var ratio = (svg.width.baseVal.value - 2 * 10) / width;

		// XXX: Workaround for JavaScript float issues (fix me)
		var fudge = 0.0001;

		unzoombtn.classList.remove("hide");

		var el = document.getElementById("frames").children;
		for (var i = 0; i < el.length; i++) {
			var e = el[i];
			var a = find_child(e, "rect").attributes;
			var ex = parseFloat(a.x.value);
			var ew = parseFloat(a.width.value);
			var upstack;
			// Is it an ancestor
			if (0 == 0) {
				upstack = parseFloat(a.y.value) > ymin;
			} else {
				upstack = parseFloat(a.y.value) < ymin;
			}
			if (upstack) {
				// Direct ancestor
				if (ex <= xmin && (ex+ew+fudge) >= xmax) {
					e.classList.add("parent");
					zoom_parent(e);
					update_text(e);
				}
				// not in current path
				else
					e.classList.add("hide");
			}
			// Children maybe
			else {
				// no common path
				if (ex < xmin || ex + fudge >= xmax) {
					e.classList.add("hide");
				}
				else {
					zoom_child(e, xmin, ratio);
					update_text(e);
				}
			}
		}
		search();
	}
	function unzoom(dont_update_text) {
		unzoombtn.classList.add("hide");
		var el = document.getElementById("frames").children;
		for(var i = 0; i < el.length; i++) {
			el[i].classList.remove("parent");
			el[i].classList.remove("hide");
			zoom_reset(el[i]);
			if(!dont_update_text) update_text(el[i]);
		}
		search();
	}
	function clearzoom() {
		unzoom();

		// remove zoom state
		var params = get_params();
		if (params.x) delete params.x;
		if (params.y) delete params.y;
		history.replaceState(null, null, parse_params(params));
	}

	// search
	function toggle_ignorecase() {
		ignorecase = !ignorecase;
		if (ignorecase) {
			ignorecaseBtn.classList.add("show");
		} else {
			ignorecaseBtn.classList.remove("show");
		}
		reset_search();
		search();
	}
	function reset_search() {
		var el = document.querySelectorAll("#frames rect");
		for (var i = 0; i < el.length; i++) {
			orig_load(el[i], "fill")
		}
		var params = get_params();
		delete params.s;
		history.replaceState(null, null, parse_params(params));
	}
	function search_prompt() {
		if (!searching) {
			var term = prompt("Enter a search term (regexp " +
			    "allowed, eg: ^ext4_)"
			    + (ignorecase ? ", ignoring case" : "")
			    + "\nPress Ctrl-i to toggle case sensitivity", "");
			if (term != null) search(term);
		} else {
			reset_search();
			searching = 0;
			currentSearchTerm = null;
			searchbtn.classList.remove("show");
			searchbtn.firstChild.nodeValue = "Search"
			matchedtxt.classList.add("hide");
			matchedtxt.firstChild.nodeValue = ""
		}
	}
	function search(term) {
		if (term) currentSearchTerm = term;
		if (currentSearchTerm === null) return;

		var re = new RegExp(currentSearchTerm, ignorecase ? 'i' : '');
		var el = document.getElementById("frames").children;
		var matches = new Object();
		var maxwidth = 0;
		for (var i = 0; i < el.length; i++) {
			var e = el[i];
			var func = g_to_func(e);
			var rect = find_child(e, "rect");
			if (func == null || rect == null)
				continue;

			// Save max width. Only works as we have a root frame
			var w = parseFloat(rect.attributes.width.value);
			if (w > maxwidth)
				maxwidth = w;

			if (func.match(re)) {
				// highlight
				var x = parseFloat(rect.attributes.x.value);
				orig_save(rect, "fill");
				rect.attributes.fill.value = "rgb(230,0,230)";

				// remember matches
				if (matches[x] == undefined) {
					matches[x] = w;
				} else {
					if (w > matches[x]) {
						// overwrite with parent
						matches[x] = w;
					}
				}
				searching = 1;
			}
		}
		if (!searching)
			return;
		var params = get_params();
		params.s = currentSearchTerm;
		history.replaceState(null, null, parse_params(params));

		searchbtn.classList.add("show");
		searchbtn.firstChild.nodeValue = "Reset Search";

		// calculate percent matched, excluding vertical overlap
		var count = 0;
		var lastx = -1;
		var lastw = 0;
		var keys = Array();
		for (k in matches) {
			if (matches.hasOwnProperty(k))
				keys.push(k);
		}
		// sort the matched frames by their x location
		// ascending, then width descending
		keys.sort(function(a, b){
			return a - b;
		});
		// Step through frames saving only the biggest bottom-up frames
		// thanks to the sort order. This relies on the tree property
		// where children are always smaller than their parents.
		var fudge = 0.0001;	// JavaScript floating point
		for (var k in keys) {
			var x = parseFloat(keys[k]);
			var w = matches[keys[k]];
			if (x >= lastx + lastw - fudge) {
				count += w;
				lastx = x;
				lastw = w;
			}
		}
		// display matched percent
		matchedtxt.classList.remove("hide");
		var pct = 100 * count / maxwidth;
		if (pct != 100) pct = pct.toFixed(1)
		matchedtxt.firstChild.nodeValue = "Matched: " + pct + "%";
	}
]]>
</script>
<rect x="0.0" y="0" width="1200.0" height="534.0" fill="url(#background)"  />
<text id="title" x="600.00" y="24" >Flame Graph</text>
<text id="details" x="10.00" y="517" > </text>
<text id="unzoom" x="10.00" y="24" class="hide">Reset Zoom</text>
<text id="search" x="1090.00" y="24" >Search</text>
<text id="ignorecase" x="1174.00" y="24" >ic</text>
<text id="matched" x="1090.00" y="517" > </text>
<g id="frames">
<g >
<title>free_pages_and_swap_cache (10,101,010 samples, 2.78%)</title><rect x="42.8" y="197" width="32.8" height="15.0" fill="rgb(222,82,19)" rx="2" ry="2" />
<text  x="45.78" y="207.5" >fr..</text>
</g>
<g >
<title>[unknown] (121,212,120 samples, 33.33%)</title><rect x="10.0" y="453" width="393.3" height="15.0" fill="rgb(210,24,5)" rx="2" ry="2" />
<text  x="13.00" y="463.5" >[unknown]</text>
</g>
<g >
<title>initializeLattice (30,303,030 samples, 8.33%)</title><rect x="534.4" y="389" width="98.4" height="15.0" fill="rgb(239,156,37)" rx="2" ry="2" />
<text  x="537.44" y="399.5" >initializeL..</text>
</g>
<g >
<title>do_syscall_64 (10,101,010 samples, 2.78%)</title><rect x="42.8" y="341" width="32.8" height="15.0" fill="rgb(209,20,4)" rx="2" ry="2" />
<text  x="45.78" y="351.5" >do..</text>
</g>
<g >
<title>__block_commit_write (10,101,010 samples, 2.78%)</title><rect x="1091.7" y="85" width="32.7" height="15.0" fill="rgb(252,218,52)" rx="2" ry="2" />
<text  x="1094.67" y="95.5" >__..</text>
</g>
<g >
<title>alloc_pages_mpol (10,101,010 samples, 2.78%)</title><rect x="337.8" y="245" width="32.8" height="15.0" fill="rgb(254,227,54)" rx="2" ry="2" />
<text  x="340.78" y="255.5" >al..</text>
</g>
<g >
<title>_IO_fwrite (111,111,110 samples, 30.56%)</title><rect x="796.7" y="373" width="360.5" height="15.0" fill="rgb(210,23,5)" rx="2" ry="2" />
<text  x="799.67" y="383.5" >_IO_fwrite</text>
</g>
<g >
<title>[libc.so.6] (242,424,240 samples, 66.67%)</title><rect x="403.3" y="421" width="786.7" height="15.0" fill="rgb(223,84,20)" rx="2" ry="2" />
<text  x="406.33" y="431.5" >[libc.so.6]</text>
</g>
<g >
<title>alloc_anon_folio (10,101,010 samples, 2.78%)</title><rect x="337.8" y="277" width="32.8" height="15.0" fill="rgb(223,86,20)" rx="2" ry="2" />
<text  x="340.78" y="287.5" >al..</text>
</g>
<g >
<title>__alloc_pages (10,101,010 samples, 2.78%)</title><rect x="10.0" y="213" width="32.8" height="15.0" fill="rgb(233,129,30)" rx="2" ry="2" />
<text  x="13.00" y="223.5" >__..</text>
</g>
<g >
<title>do_vmi_align_munmap (10,101,010 samples, 2.78%)</title><rect x="42.8" y="261" width="32.8" height="15.0" fill="rgb(211,29,7)" rx="2" ry="2" />
<text  x="45.78" y="271.5" >do..</text>
</g>
<g >
<title>exc_page_fault (10,101,010 samples, 2.78%)</title><rect x="337.8" y="373" width="32.8" height="15.0" fill="rgb(212,35,8)" rx="2" ry="2" />
<text  x="340.78" y="383.5" >ex..</text>
</g>
<g >
<title>exc_page_fault (10,101,010 samples, 2.78%)</title><rect x="370.6" y="389" width="32.7" height="15.0" fill="rgb(212,35,8)" rx="2" ry="2" />
<text  x="373.56" y="399.5" >ex..</text>
</g>
<g >
<title>clear_page_orig (10,101,010 samples, 2.78%)</title><rect x="10.0" y="181" width="32.8" height="15.0" fill="rgb(218,61,14)" rx="2" ry="2" />
<text  x="13.00" y="191.5" >cl..</text>
</g>
<g >
<title>asm_exc_page_fault (10,101,010 samples, 2.78%)</title><rect x="370.6" y="405" width="32.7" height="15.0" fill="rgb(225,93,22)" rx="2" ry="2" />
<text  x="373.56" y="415.5" >as..</text>
</g>
<g >
<title>fwrite@plt (10,101,010 samples, 2.78%)</title><rect x="1157.2" y="373" width="32.8" height="15.0" fill="rgb(235,140,33)" rx="2" ry="2" />
<text  x="1160.22" y="383.5" >fw..</text>
</g>
<g >
<title>do_user_addr_fault (10,101,010 samples, 2.78%)</title><rect x="10.0" y="341" width="32.8" height="15.0" fill="rgb(228,108,25)" rx="2" ry="2" />
<text  x="13.00" y="351.5" >do..</text>
</g>
<g >
<title>[pnm.so] (20,202,020 samples, 5.56%)</title><rect x="337.8" y="437" width="65.5" height="15.0" fill="rgb(229,113,27)" rx="2" ry="2" />
<text  x="340.78" y="447.5" >[pnm.so]</text>
</g>
<g >
<title>metropolisHastingsStep (10,101,010 samples, 2.78%)</title><rect x="632.8" y="389" width="32.8" height="15.0" fill="rgb(252,217,51)" rx="2" ry="2" />
<text  x="635.78" y="399.5" >me..</text>
</g>
<g >
<title>_raw_spin_unlock_irqrestore (10,101,010 samples, 2.78%)</title><rect x="1091.7" y="37" width="32.7" height="15.0" fill="rgb(228,106,25)" rx="2" ry="2" />
<text  x="1094.67" y="47.5" >_r..</text>
</g>
<g >
<title>ksys_write (20,202,020 samples, 5.56%)</title><rect x="1091.7" y="213" width="65.5" height="15.0" fill="rgb(205,4,1)" rx="2" ry="2" />
<text  x="1094.67" y="223.5" >ksys_wr..</text>
</g>
<g >
<title>[libc.so.6] (10,101,010 samples, 2.78%)</title><rect x="370.6" y="421" width="32.7" height="15.0" fill="rgb(223,84,20)" rx="2" ry="2" />
<text  x="373.56" y="431.5" >[l..</text>
</g>
<g >
<title>GOMP_parallel (10,101,010 samples, 2.78%)</title><rect x="239.4" y="405" width="32.8" height="15.0" fill="rgb(208,14,3)" rx="2" ry="2" />
<text  x="242.44" y="415.5" >GO..</text>
</g>
<g >
<title>GetImageChannelDepth (20,202,020 samples, 5.56%)</title><rect x="206.7" y="421" width="65.5" height="15.0" fill="rgb(244,179,42)" rx="2" ry="2" />
<text  x="209.67" y="431.5" >GetImag..</text>
</g>
<g >
<title>[libMagickCore-6.Q16.so.7.0.0] (20,202,020 samples, 5.56%)</title><rect x="10.0" y="437" width="65.6" height="15.0" fill="rgb(229,112,26)" rx="2" ry="2" />
<text  x="13.00" y="447.5" >[libMag..</text>
</g>
<g >
<title>ext4_buffered_write_iter (10,101,010 samples, 2.78%)</title><rect x="1091.7" y="165" width="32.7" height="15.0" fill="rgb(213,40,9)" rx="2" ry="2" />
<text  x="1094.67" y="175.5" >ex..</text>
</g>
<g >
<title>cfree (10,101,010 samples, 2.78%)</title><rect x="42.8" y="389" width="32.8" height="15.0" fill="rgb(223,86,20)" rx="2" ry="2" />
<text  x="45.78" y="399.5" >cf..</text>
</g>
<g >
<title>randomDouble (20,202,020 samples, 5.56%)</title><rect x="567.2" y="373" width="65.6" height="15.0" fill="rgb(227,103,24)" rx="2" ry="2" />
<text  x="570.22" y="383.5" >randomD..</text>
</g>
<g >
<title>_start (242,424,240 samples, 66.67%)</title><rect x="403.3" y="453" width="786.7" height="15.0" fill="rgb(245,185,44)" rx="2" ry="2" />
<text  x="406.33" y="463.5" >_start</text>
</g>
<g >
<title>block_write_end (10,101,010 samples, 2.78%)</title><rect x="1091.7" y="101" width="32.7" height="15.0" fill="rgb(213,38,9)" rx="2" ry="2" />
<text  x="1094.67" y="111.5" >bl..</text>
</g>
<g >
<title>apparmor_file_permission (10,101,010 samples, 2.78%)</title><rect x="1124.4" y="149" width="32.8" height="15.0" fill="rgb(218,60,14)" rx="2" ry="2" />
<text  x="1127.44" y="159.5" >ap..</text>
</g>
<g >
<title>free_unref_page_commit (10,101,010 samples, 2.78%)</title><rect x="42.8" y="149" width="32.8" height="15.0" fill="rgb(247,196,46)" rx="2" ry="2" />
<text  x="45.78" y="159.5" >fr..</text>
</g>
<g >
<title>handle_pte_fault (10,101,010 samples, 2.78%)</title><rect x="10.0" y="293" width="32.8" height="15.0" fill="rgb(217,57,13)" rx="2" ry="2" />
<text  x="13.00" y="303.5" >ha..</text>
</g>
<g >
<title>[libc.so.6] (10,101,010 samples, 2.78%)</title><rect x="337.8" y="405" width="32.8" height="15.0" fill="rgb(223,84,20)" rx="2" ry="2" />
<text  x="340.78" y="415.5" >[l..</text>
</g>
<g >
<title>__folio_mark_dirty (10,101,010 samples, 2.78%)</title><rect x="1091.7" y="53" width="32.7" height="15.0" fill="rgb(239,159,38)" rx="2" ry="2" />
<text  x="1094.67" y="63.5" >__..</text>
</g>
<g >
<title>tlb_batch_pages_flush (10,101,010 samples, 2.78%)</title><rect x="42.8" y="213" width="32.8" height="15.0" fill="rgb(234,133,32)" rx="2" ry="2" />
<text  x="45.78" y="223.5" >tl..</text>
</g>
<g >
<title>saveLatticeImage (161,616,160 samples, 44.44%)</title><rect x="665.6" y="389" width="524.4" height="15.0" fill="rgb(222,81,19)" rx="2" ry="2" />
<text  x="668.56" y="399.5" >saveLatticeImage</text>
</g>
<g >
<title>get_page_from_freelist (10,101,010 samples, 2.78%)</title><rect x="10.0" y="197" width="32.8" height="15.0" fill="rgb(252,218,52)" rx="2" ry="2" />
<text  x="13.00" y="207.5" >ge..</text>
</g>
<g >
<title>GOMP_parallel (10,101,010 samples, 2.78%)</title><rect x="10.0" y="405" width="32.8" height="15.0" fill="rgb(208,14,3)" rx="2" ry="2" />
<text  x="13.00" y="415.5" >GO..</text>
</g>
<g >
<title>ext4_file_write_iter (10,101,010 samples, 2.78%)</title><rect x="1091.7" y="181" width="32.7" height="15.0" fill="rgb(220,71,17)" rx="2" ry="2" />
<text  x="1094.67" y="191.5" >ex..</text>
</g>
<g >
<title>calculateTotalEnergy (40,404,040 samples, 11.11%)</title><rect x="403.3" y="389" width="131.1" height="15.0" fill="rgb(252,219,52)" rx="2" ry="2" />
<text  x="406.33" y="399.5" >calculateTotalEn..</text>
</g>
<g >
<title>main.exe (242,424,240 samples, 66.67%)</title><rect x="403.3" y="469" width="786.7" height="15.0" fill="rgb(216,53,12)" rx="2" ry="2" />
<text  x="406.33" y="479.5" >main.exe</text>
</g>
<g >
<title>vfs_write (20,202,020 samples, 5.56%)</title><rect x="1091.7" y="197" width="65.5" height="15.0" fill="rgb(250,209,50)" rx="2" ry="2" />
<text  x="1094.67" y="207.5" >vfs_write</text>
</g>
<g >
<title>handle_mm_fault (10,101,010 samples, 2.78%)</title><rect x="337.8" y="341" width="32.8" height="15.0" fill="rgb(234,135,32)" rx="2" ry="2" />
<text  x="340.78" y="351.5" >ha..</text>
</g>
<g >
<title>exc_page_fault (10,101,010 samples, 2.78%)</title><rect x="10.0" y="357" width="32.8" height="15.0" fill="rgb(212,35,8)" rx="2" ry="2" />
<text  x="13.00" y="367.5" >ex..</text>
</g>
<g >
<title>ext4_da_write_end (10,101,010 samples, 2.78%)</title><rect x="1091.7" y="133" width="32.7" height="15.0" fill="rgb(242,173,41)" rx="2" ry="2" />
<text  x="1094.67" y="143.5" >ex..</text>
</g>
<g >
<title>__x64_sys_munmap (10,101,010 samples, 2.78%)</title><rect x="42.8" y="309" width="32.8" height="15.0" fill="rgb(206,7,1)" rx="2" ry="2" />
<text  x="45.78" y="319.5" >__..</text>
</g>
<g >
<title>write (20,202,020 samples, 5.56%)</title><rect x="1091.7" y="309" width="65.5" height="15.0" fill="rgb(228,107,25)" rx="2" ry="2" />
<text  x="1094.67" y="319.5" >write</text>
</g>
<g >
<title>__handle_mm_fault (10,101,010 samples, 2.78%)</title><rect x="370.6" y="341" width="32.7" height="15.0" fill="rgb(207,9,2)" rx="2" ry="2" />
<text  x="373.56" y="351.5" >__..</text>
</g>
<g >
<title>alloc_anon_folio (10,101,010 samples, 2.78%)</title><rect x="10.0" y="261" width="32.8" height="15.0" fill="rgb(223,86,20)" rx="2" ry="2" />
<text  x="13.00" y="271.5" >al..</text>
</g>
<g >
<title>entry_SYSCALL_64_after_hwframe (10,101,010 samples, 2.78%)</title><rect x="42.8" y="357" width="32.8" height="15.0" fill="rgb(218,63,15)" rx="2" ry="2" />
<text  x="45.78" y="367.5" >en..</text>
</g>
<g >
<title>ext4_da_do_write_end (10,101,010 samples, 2.78%)</title><rect x="1091.7" y="117" width="32.7" height="15.0" fill="rgb(215,50,12)" rx="2" ry="2" />
<text  x="1094.67" y="127.5" >ex..</text>
</g>
<g >
<title>_IO_do_write (20,202,020 samples, 5.56%)</title><rect x="1091.7" y="341" width="65.5" height="15.0" fill="rgb(242,171,41)" rx="2" ry="2" />
<text  x="1094.67" y="351.5" >_IO_do_..</text>
</g>
<g >
<title>__munmap (10,101,010 samples, 2.78%)</title><rect x="42.8" y="373" width="32.8" height="15.0" fill="rgb(211,29,7)" rx="2" ry="2" />
<text  x="45.78" y="383.5" >__..</text>
</g>
<g >
<title>[libpng16.so.16.43.0] (10,101,010 samples, 2.78%)</title><rect x="305.0" y="405" width="32.8" height="15.0" fill="rgb(211,30,7)" rx="2" ry="2" />
<text  x="308.00" y="415.5" >[l..</text>
</g>
<g >
<title>do_vmi_munmap (10,101,010 samples, 2.78%)</title><rect x="42.8" y="277" width="32.8" height="15.0" fill="rgb(253,223,53)" rx="2" ry="2" />
<text  x="45.78" y="287.5" >do..</text>
</g>
<g >
<title>do_user_addr_fault (10,101,010 samples, 2.78%)</title><rect x="337.8" y="357" width="32.8" height="15.0" fill="rgb(228,108,25)" rx="2" ry="2" />
<text  x="340.78" y="367.5" >do..</text>
</g>
<g >
<title>randomU64 (10,101,010 samples, 2.78%)</title><rect x="632.8" y="357" width="32.8" height="15.0" fill="rgb(238,156,37)" rx="2" ry="2" />
<text  x="635.78" y="367.5" >ra..</text>
</g>
<g >
<title>security_file_permission (10,101,010 samples, 2.78%)</title><rect x="1124.4" y="165" width="32.8" height="15.0" fill="rgb(225,96,23)" rx="2" ry="2" />
<text  x="1127.44" y="175.5" >se..</text>
</g>
<g >
<title>do_anonymous_page (10,101,010 samples, 2.78%)</title><rect x="10.0" y="277" width="32.8" height="15.0" fill="rgb(238,155,37)" rx="2" ry="2" />
<text  x="13.00" y="287.5" >do..</text>
</g>
<g >
<title>mark_buffer_dirty (10,101,010 samples, 2.78%)</title><rect x="1091.7" y="69" width="32.7" height="15.0" fill="rgb(240,163,39)" rx="2" ry="2" />
<text  x="1094.67" y="79.5" >ma..</text>
</g>
<g >
<title>ResetImagePixels (10,101,010 samples, 2.78%)</title><rect x="337.8" y="421" width="32.8" height="15.0" fill="rgb(253,222,53)" rx="2" ry="2" />
<text  x="340.78" y="431.5" >Re..</text>
</g>
<g >
<title>__libc_start_main (242,424,240 samples, 66.67%)</title><rect x="403.3" y="437" width="786.7" height="15.0" fill="rgb(236,142,34)" rx="2" ry="2" />
<text  x="406.33" y="447.5" >__libc_start_main</text>
</g>
<g >
<title>rw_verify_area (10,101,010 samples, 2.78%)</title><rect x="1124.4" y="181" width="32.8" height="15.0" fill="rgb(218,64,15)" rx="2" ry="2" />
<text  x="1127.44" y="191.5" >rw..</text>
</g>
<g >
<title>handle_mm_fault (10,101,010 samples, 2.78%)</title><rect x="10.0" y="325" width="32.8" height="15.0" fill="rgb(234,135,32)" rx="2" ry="2" />
<text  x="13.00" y="335.5" >ha..</text>
</g>
<g >
<title>asm_exc_page_fault (10,101,010 samples, 2.78%)</title><rect x="10.0" y="373" width="32.8" height="15.0" fill="rgb(225,93,22)" rx="2" ry="2" />
<text  x="13.00" y="383.5" >as..</text>
</g>
<g >
<title>[unknown] (20,202,020 samples, 5.56%)</title><rect x="1091.7" y="245" width="65.5" height="15.0" fill="rgb(210,24,5)" rx="2" ry="2" />
<text  x="1094.67" y="255.5" >[unknown]</text>
</g>
<g >
<title>get_page_from_freelist (10,101,010 samples, 2.78%)</title><rect x="337.8" y="213" width="32.8" height="15.0" fill="rgb(252,218,52)" rx="2" ry="2" />
<text  x="340.78" y="223.5" >ge..</text>
</g>
<g >
<title>handle_pte_fault (10,101,010 samples, 2.78%)</title><rect x="337.8" y="309" width="32.8" height="15.0" fill="rgb(217,57,13)" rx="2" ry="2" />
<text  x="340.78" y="319.5" >ha..</text>
</g>
<g >
<title>vma_alloc_folio (10,101,010 samples, 2.78%)</title><rect x="337.8" y="261" width="32.8" height="15.0" fill="rgb(245,187,44)" rx="2" ry="2" />
<text  x="340.78" y="271.5" >vm..</text>
</g>
<g >
<title>deflate (10,101,010 samples, 2.78%)</title><rect x="305.0" y="389" width="32.8" height="15.0" fill="rgb(230,115,27)" rx="2" ry="2" />
<text  x="308.00" y="399.5" >de..</text>
</g>
<g >
<title>convert (121,212,120 samples, 33.33%)</title><rect x="10.0" y="469" width="393.3" height="15.0" fill="rgb(245,188,44)" rx="2" ry="2" />
<text  x="13.00" y="479.5" >convert</text>
</g>
<g >
<title>__x64_sys_write (20,202,020 samples, 5.56%)</title><rect x="1091.7" y="229" width="65.5" height="15.0" fill="rgb(246,189,45)" rx="2" ry="2" />
<text  x="1094.67" y="239.5" >__x64_s..</text>
</g>
<g >
<title>__x64_sys_write (20,202,020 samples, 5.56%)</title><rect x="1091.7" y="261" width="65.5" height="15.0" fill="rgb(246,189,45)" rx="2" ry="2" />
<text  x="1094.67" y="271.5" >__x64_s..</text>
</g>
<g >
<title>RelinquishAlignedMemory (10,101,010 samples, 2.78%)</title><rect x="42.8" y="405" width="32.8" height="15.0" fill="rgb(206,7,1)" rx="2" ry="2" />
<text  x="45.78" y="415.5" >Re..</text>
</g>
<g >
<title>__handle_mm_fault (10,101,010 samples, 2.78%)</title><rect x="10.0" y="309" width="32.8" height="15.0" fill="rgb(207,9,2)" rx="2" ry="2" />
<text  x="13.00" y="319.5" >__..</text>
</g>
<g >
<title>entry_SYSCALL_64_after_hwframe (20,202,020 samples, 5.56%)</title><rect x="1091.7" y="293" width="65.5" height="15.0" fill="rgb(218,63,15)" rx="2" ry="2" />
<text  x="1094.67" y="303.5" >entry_S..</text>
</g>
<g >
<title>_IO_file_xsputn (60,606,060 samples, 16.67%)</title><rect x="960.6" y="357" width="196.6" height="15.0" fill="rgb(245,188,45)" rx="2" ry="2" />
<text  x="963.56" y="367.5" >_IO_file_xsputn</text>
</g>
<g >
<title>x64_sys_call (10,101,010 samples, 2.78%)</title><rect x="42.8" y="325" width="32.8" height="15.0" fill="rgb(247,194,46)" rx="2" ry="2" />
<text  x="45.78" y="335.5" >x6..</text>
</g>
<g >
<title>__vm_munmap (10,101,010 samples, 2.78%)</title><rect x="42.8" y="293" width="32.8" height="15.0" fill="rgb(231,121,28)" rx="2" ry="2" />
<text  x="45.78" y="303.5" >__..</text>
</g>
<g >
<title>main (242,424,240 samples, 66.67%)</title><rect x="403.3" y="405" width="786.7" height="15.0" fill="rgb(243,179,42)" rx="2" ry="2" />
<text  x="406.33" y="415.5" >main</text>
</g>
<g >
<title>randomDouble (10,101,010 samples, 2.78%)</title><rect x="632.8" y="373" width="32.8" height="15.0" fill="rgb(227,103,24)" rx="2" ry="2" />
<text  x="635.78" y="383.5" >ra..</text>
</g>
<g >
<title>[libz.so.1.3] (10,101,010 samples, 2.78%)</title><rect x="305.0" y="373" width="32.8" height="15.0" fill="rgb(230,116,27)" rx="2" ry="2" />
<text  x="308.00" y="383.5" >[l..</text>
</g>
<g >
<title>[png.so] (80,808,080 samples, 22.22%)</title><rect x="75.6" y="437" width="262.2" height="15.0" fill="rgb(218,61,14)" rx="2" ry="2" />
<text  x="78.56" y="447.5" >[png.so]</text>
</g>
<g >
<title>vma_alloc_folio (10,101,010 samples, 2.78%)</title><rect x="10.0" y="245" width="32.8" height="15.0" fill="rgb(245,187,44)" rx="2" ry="2" />
<text  x="13.00" y="255.5" >vm..</text>
</g>
<g >
<title>asm_exc_page_fault (10,101,010 samples, 2.78%)</title><rect x="337.8" y="389" width="32.8" height="15.0" fill="rgb(225,93,22)" rx="2" ry="2" />
<text  x="340.78" y="399.5" >as..</text>
</g>
<g >
<title>generic_perform_write (10,101,010 samples, 2.78%)</title><rect x="1091.7" y="149" width="32.7" height="15.0" fill="rgb(236,146,35)" rx="2" ry="2" />
<text  x="1094.67" y="159.5" >ge..</text>
</g>
<g >
<title>[libMagickCore-6.Q16.so.7.0.0] (20,202,020 samples, 5.56%)</title><rect x="10.0" y="421" width="65.6" height="15.0" fill="rgb(229,112,26)" rx="2" ry="2" />
<text  x="13.00" y="431.5" >[libMag..</text>
</g>
<g >
<title>unmap_region (10,101,010 samples, 2.78%)</title><rect x="42.8" y="245" width="32.8" height="15.0" fill="rgb(219,64,15)" rx="2" ry="2" />
<text  x="45.78" y="255.5" >un..</text>
</g>
<g >
<title>[libMagickCore-6.Q16.so.7.0.0] (10,101,010 samples, 2.78%)</title><rect x="239.4" y="389" width="32.8" height="15.0" fill="rgb(229,112,26)" rx="2" ry="2" />
<text  x="242.44" y="399.5" >[l..</text>
</g>
<g >
<title>handle_mm_fault (10,101,010 samples, 2.78%)</title><rect x="370.6" y="357" width="32.7" height="15.0" fill="rgb(234,135,32)" rx="2" ry="2" />
<text  x="373.56" y="367.5" >ha..</text>
</g>
<g >
<title>__alloc_pages (10,101,010 samples, 2.78%)</title><rect x="337.8" y="229" width="32.8" height="15.0" fill="rgb(233,129,30)" rx="2" ry="2" />
<text  x="340.78" y="239.5" >__..</text>
</g>
<g >
<title>all (363,636,360 samples, 100%)</title><rect x="10.0" y="485" width="1180.0" height="15.0" fill="rgb(213,39,9)" rx="2" ry="2" />
<text  x="13.00" y="495.5" ></text>
</g>
<g >
<title>[libc.so.6] (20,202,020 samples, 5.56%)</title><rect x="1026.1" y="341" width="65.6" height="15.0" fill="rgb(223,84,20)" rx="2" ry="2" />
<text  x="1029.11" y="351.5" >[libc.s..</text>
</g>
<g >
<title>png_write_row (20,202,020 samples, 5.56%)</title><rect x="272.2" y="421" width="65.6" height="15.0" fill="rgb(229,111,26)" rx="2" ry="2" />
<text  x="275.22" y="431.5" >png_wri..</text>
</g>
<g >
<title>tlb_finish_mmu (10,101,010 samples, 2.78%)</title><rect x="42.8" y="229" width="32.8" height="15.0" fill="rgb(251,212,50)" rx="2" ry="2" />
<text  x="45.78" y="239.5" >tl..</text>
</g>
<g >
<title>__handle_mm_fault (10,101,010 samples, 2.78%)</title><rect x="337.8" y="325" width="32.8" height="15.0" fill="rgb(207,9,2)" rx="2" ry="2" />
<text  x="340.78" y="335.5" >__..</text>
</g>
<g >
<title>do_syscall_64 (20,202,020 samples, 5.56%)</title><rect x="1091.7" y="277" width="65.5" height="15.0" fill="rgb(209,20,4)" rx="2" ry="2" />
<text  x="1094.67" y="287.5" >do_sysc..</text>
</g>
<g >
<title>do_anonymous_page (10,101,010 samples, 2.78%)</title><rect x="337.8" y="293" width="32.8" height="15.0" fill="rgb(238,155,37)" rx="2" ry="2" />
<text  x="340.78" y="303.5" >do..</text>
</g>
<g >
<title>free_unref_page_list (10,101,010 samples, 2.78%)</title><rect x="42.8" y="165" width="32.8" height="15.0" fill="rgb(221,77,18)" rx="2" ry="2" />
<text  x="45.78" y="175.5" >fr..</text>
</g>
<g >
<title>[libc.so.6] (10,101,010 samples, 2.78%)</title><rect x="10.0" y="389" width="32.8" height="15.0" fill="rgb(223,84,20)" rx="2" ry="2" />
<text  x="13.00" y="399.5" >[l..</text>
</g>
<g >
<title>release_pages (10,101,010 samples, 2.78%)</title><rect x="42.8" y="181" width="32.8" height="15.0" fill="rgb(228,106,25)" rx="2" ry="2" />
<text  x="45.78" y="191.5" >re..</text>
</g>
<g >
<title>do_user_addr_fault (10,101,010 samples, 2.78%)</title><rect x="370.6" y="373" width="32.7" height="15.0" fill="rgb(228,108,25)" rx="2" ry="2" />
<text  x="373.56" y="383.5" >do..</text>
</g>
<g >
<title>clear_page_orig (10,101,010 samples, 2.78%)</title><rect x="337.8" y="197" width="32.8" height="15.0" fill="rgb(218,61,14)" rx="2" ry="2" />
<text  x="340.78" y="207.5" >cl..</text>
</g>
<g >
<title>alloc_pages_mpol (10,101,010 samples, 2.78%)</title><rect x="10.0" y="229" width="32.8" height="15.0" fill="rgb(254,227,54)" rx="2" ry="2" />
<text  x="13.00" y="239.5" >al..</text>
</g>
<g >
<title>do_anonymous_page (10,101,010 samples, 2.78%)</title><rect x="370.6" y="325" width="32.7" height="15.0" fill="rgb(238,155,37)" rx="2" ry="2" />
<text  x="373.56" y="335.5" >do..</text>
</g>
<g >
<title>_IO_file_write (20,202,020 samples, 5.56%)</title><rect x="1091.7" y="325" width="65.5" height="15.0" fill="rgb(218,59,14)" rx="2" ry="2" />
<text  x="1094.67" y="335.5" >_IO_fil..</text>
</g>
</g>
</svg>
